<?xml version="1.0" encoding="UTF-8" standalone="no"?>
<!-- Created with Inkscape (http://www.inkscape.org/) -->

<svg
   width="27.16667mm"
   height="22.230883mm"
   viewBox="0 0 27.16667 22.230883"
   version="1.1"
   id="svg5"
   inkscape:version="1.1.1 (3bf5ae0d25, 2021-09-20)"
   sodipodi:docname="Language.svg"
   xmlns:inkscape="http://www.inkscape.org/namespaces/inkscape"
   xmlns:sodipodi="http://sodipodi.sourceforge.net/DTD/sodipodi-0.dtd"
   xmlns="http://www.w3.org/2000/svg"
   xmlns:svg="http://www.w3.org/2000/svg">
  <sodipodi:namedview
     id="namedview7"
     pagecolor="#ffffff"
     bordercolor="#666666"
     borderopacity="1.0"
     inkscape:pageshadow="2"
     inkscape:pageopacity="0.0"
     inkscape:pagecheckerboard="0"
     inkscape:document-units="mm"
     showgrid="false"
     fit-margin-top="2"
     fit-margin-left="2"
     fit-margin-right="2"
     fit-margin-bottom="2"
     inkscape:zoom="2.1871106"
     inkscape:cx="155.22763"
     inkscape:cy="49.60883"
     inkscape:window-width="1920"
     inkscape:window-height="1027"
     inkscape:window-x="1912"
     inkscape:window-y="-8"
     inkscape:window-maximized="1"
     inkscape:current-layer="layer1" />
  <defs
     id="defs2" />
  <g
     inkscape:label="Ebene 1"
     inkscape:groupmode="layer"
     id="layer1"
     transform="translate(-92.830261,-102.50641)">
    <path
       d="m 104.82609,107.3585 h 4.23334 v -0.79375 c 0,-0.58209 -0.47625,-1.05834 -1.05834,-1.05834 H 96.888595 c -0.582084,0 -1.058334,0.47625 -1.058334,1.05834 v 7.14375 c 0,0.58208 0.47625,1.05833 1.058334,1.05833 h 1.5875 v 2.64583 l 2.645835,-2.64583 h 1.5875 v -5.29167 c 0,-1.16416 0.9525,-2.11666 2.11666,-2.11666 z"
       id="path824"
       style="fill:#54bceb;fill-opacity:1;stroke:#ffffff;stroke-width:2;stroke-miterlimit:4;stroke-dasharray:none;stroke-opacity:1;paint-order:markers stroke fill" />
    <path
       d="m 115.93859,108.41683 h -11.1125 c -0.58208,0 -1.05833,0.47625 -1.05833,1.05833 v 7.14375 c 0,0.58209 0.47625,1.05834 1.05833,1.05834 h 6.87917 l 2.64583,2.64583 v -2.64583 h 1.5875 c 0.58209,0 1.05834,-0.47625 1.05834,-1.05834 v -7.14375 c 0,-0.58208 -0.47625,-1.05833 -1.05834,-1.05833 z"
       id="path826"
       style="fill:#54bceb;fill-opacity:1;stroke:#ffffff;stroke-width:2;stroke-miterlimit:4;stroke-dasharray:none;stroke-opacity:1;paint-order:markers stroke fill" />
  </g>
</svg>
