<?xml version="1.0" encoding="UTF-8" standalone="no"?>
<svg
   xmlns:dc="http://purl.org/dc/elements/1.1/"
   xmlns:cc="http://creativecommons.org/ns#"
   xmlns:rdf="http://www.w3.org/1999/02/22-rdf-syntax-ns#"
   xmlns:svg="http://www.w3.org/2000/svg"
   xmlns="http://www.w3.org/2000/svg"
   xmlns:sodipodi="http://sodipodi.sourceforge.net/DTD/sodipodi-0.dtd"
   xmlns:inkscape="http://www.inkscape.org/namespaces/inkscape"
   width="200mm"
   height="200mm"
   viewBox="0 0 200 200"
   version="1.1"
   id="svg8"
   inkscape:version="1.0.1 (3bc2e813f5, 2020-09-07)"
   sodipodi:docname="ArrowLeft.svg"
   inkscape:export-filename="E:\scieboFH\PL2\GHEtool-main\GHEtool\ArrowLeft.png"
   inkscape:export-xdpi="99"
   inkscape:export-ydpi="99">
  <defs
     id="defs2" />
  <sodipodi:namedview
     id="base"
     pagecolor="#ffffff"
     bordercolor="#666666"
     borderopacity="1.0"
     inkscape:pageopacity="0.0"
     inkscape:pageshadow="2"
     inkscape:zoom="0.98994949"
     inkscape:cx="396.38178"
     inkscape:cy="424.9245"
     inkscape:document-units="mm"
     inkscape:current-layer="layer1"
     inkscape:document-rotation="0"
     showgrid="false"
     inkscape:window-width="1920"
     inkscape:window-height="1027"
     inkscape:window-x="1912"
     inkscape:window-y="-8"
     inkscape:window-maximized="1" />
  <metadata
     id="metadata5">
    <rdf:RDF>
      <cc:Work
         rdf:about="">
        <dc:format>image/svg+xml</dc:format>
        <dc:type
           rdf:resource="http://purl.org/dc/dcmitype/StillImage" />
        <dc:title></dc:title>
      </cc:Work>
    </rdf:RDF>
  </metadata>
  <g
     inkscape:label="Ebene 1"
     inkscape:groupmode="layer"
     id="layer1">
    <path
       style="fill:#ffffff;stroke-width:0.0583452"
       d="m 89.08604,188.04291 c 0.0868,-0.10467 0.34684,-0.38723 0.57792,-0.62791 0.23107,-0.24068 0.96839,-1.0152 1.63849,-1.72118 0.67009,-0.70599 1.40578,-1.48051 1.63486,-1.72119 0.22907,-0.24067 0.9249,-0.97582 1.54629,-1.63367 0.62139,-0.65784 1.34398,-1.41924 1.60575,-1.692 0.26177,-0.27277 1.21995,-1.28361 2.12929,-2.2463 0.90934,-0.9627 1.85429,-1.9604 2.09988,-2.21712 0.2456,-0.25672 0.95619,-1.00571 1.5791,-1.66441 1.98685,-2.10103 4.2636,-4.50428 4.75208,-5.01612 0.26031,-0.27276 0.99501,-1.0473 1.63266,-1.72119 0.63765,-0.67389 1.36005,-1.43529 1.60533,-1.69201 1.31701,-1.3784 2.42043,-2.55429 2.42821,-2.58767 0.005,-0.0209 -1.01915,-1.00931 -2.27556,-2.19664 -3.24867,-3.07002 -26.61332,-25.20838 -27.3143,-25.88071 -0.3209,-0.30778 -2.13252,-2.02471 -4.02583,-3.8154 -1.89331,-1.79068 -3.65241,-3.45749 -3.90913,-3.70401 -0.25672,-0.24652 -1.25442,-1.19222 -2.21712,-2.10156 -0.96269,-0.90934 -1.9604,-1.85432 -2.21712,-2.09997 -0.25671,-0.24564 -1.26755,-1.20406 -2.24629,-2.12979 -0.97874,-0.92574 -1.98957,-1.8842 -2.24629,-2.12991 -0.25672,-0.2457 -1.51698,-1.4402 -2.80058,-2.65444 -1.28359,-1.21424 -2.55698,-2.42192 -2.82974,-2.68371 -0.27276,-0.26181 -2.53073,-2.4025 -5.0177,-4.75709 -5.40971,-5.12177 -6.52592,-6.1808 -7.16923,-6.80198 l -0.48871,-0.47188 0.65892,-0.69514 c 0.3624,-0.38232 0.873,-0.91831 1.13467,-1.19107 0.26167,-0.272763 2.15214,-2.268171 4.20106,-4.434238 2.0489,-2.166068 3.94067,-4.161476 4.20392,-4.43424 0.26325,-0.272764 3.37458,-3.554685 6.91406,-7.293157 3.53948,-3.738473 6.88493,-7.269819 7.43432,-7.847437 0.549401,-0.577618 1.50835,-1.588449 2.13099,-2.246292 0.62264,-0.657843 1.33243,-1.406121 1.57731,-1.66284 0.24489,-0.256719 0.96746,-1.018125 1.60571,-1.692012 0.63825,-0.673888 1.17443,-1.238688 1.19152,-1.255112 0.0171,-0.01642 0.23975,-0.252717 0.49478,-0.525107 0.25502,-0.272385 0.67667,-0.718417 0.93698,-0.991181 0.26032,-0.272764 0.98245,-1.03417 1.604731,-1.692012 0.62229,-0.657843 1.33208,-1.406122 1.57731,-1.66284 0.24523,-0.25672 1.20301,-1.267552 2.128399,-2.246293 0.925381,-0.978742 1.882311,-1.989574 2.12652,-2.246292 0.24421,-0.25672 0.67925,-0.715832 0.966751,-1.020255 0.287499,-0.304416 0.760369,-0.803268 1.05083,-1.108559 0.50119,-0.526781 1.20279,-1.26656 2.18646,-2.305425 0.64343,-0.679548 1.58439,-1.671417 2.18727,-2.305643 2.859449,-3.008088 16.270239,-17.172309 16.409699,-17.33162 l 0.18233,-0.208288 -0.85741,-0.809078 c -0.47157,-0.44499 -1.33001,-1.258642 -1.90763,-1.80811 -0.57761,-0.549472 -2.0873,-1.979566 -3.35485,-3.177994 -1.26755,-1.198429 -2.52781,-2.393182 -2.80057,-2.655003 -0.27276,-0.261823 -3.528429,-3.346536 -7.234809,-6.854926 -3.70639,-3.508387 -7.00806,-6.643796 -7.33706,-6.967571 l -0.59817,-0.588684 -0.2552,0.261648 c -0.14036,0.143905 -2.67742,2.821546 -5.6379,5.95031 -2.96049,3.128765 -5.59769,5.911832 -5.86046,6.184597 -0.445,0.461938 -10.80043,11.389514 -20.678591,21.821126 -2.35503,2.486968 -4.483769,4.731801 -4.730529,4.98852 -0.24676,0.256718 -1.19342,1.254423 -2.10367,2.217119 -0.91027,0.962698 -1.85504,1.9604 -2.09951,2.217121 -0.24447,0.25672 -0.71818,0.75557 -1.052691,1.108559 -0.334499,0.352988 -0.82068,0.864969 -1.080389,1.137732 -0.606651,0.637148 -1.15473,1.215595 -3.151101,3.32568 -2.06749,2.185275 -5.73972,6.06132 -6.356869,6.709705 -0.25963,0.272764 -0.745021,0.784744 -1.078651,1.137733 -0.33363,0.352988 -0.80621,0.851841 -1.05018,1.108559 -0.24397,0.256719 -0.96518,1.018124 -1.60269,1.692012 -0.63752,0.673888 -1.37327,1.448422 -1.635,1.721186 -0.26174,0.272764 -5.97341,6.29837 -12.6926,13.390236 C 8.5871205,94.88234 2.3944405,101.41596 1.5448005,102.30964 l -1.5448,1.62487 0.31713,0.30346 c 0.17443,0.1669 1.10479,1.04872 2.06749,1.95959 0.96269,0.91087 1.9604,1.85769 2.21712,2.10403 0.25672,0.24635 2.5278,2.39774 5.04686,4.78085 2.5190595,2.38312 4.8032795,4.54825 5.0760395,4.81138 0.272771,0.26314 3.01645,2.86455 6.09708,5.78091 3.080621,2.91636 6.12625,5.80149 6.768041,6.4114 1.37191,1.30374 1.87381,1.7798 2.74223,2.60103 0.353,0.3338 0.85184,0.80718 1.10856,1.05196 0.25672,0.24478 2.77723,2.63235 5.60115,5.30572 2.82391,2.67337 5.34442,5.06265 5.60115,5.30952 0.25671,0.24687 3.5255,3.34576 7.26398,6.88643 3.73847,3.54068 7.00727,6.63866 7.26398,6.88442 0.25672,0.24575 0.72901,0.69428 1.04954,0.99672 0.32053,0.30245 0.83252,0.78883 1.13774,1.08084 0.30522,0.29201 2.35345,2.23183 4.5516,4.31069 2.19816,2.07887 4.20669,3.98203 4.46341,4.22925 0.25672,0.24722 3.77494,3.58253 7.81827,7.41178 4.04332,3.82925 7.56154,7.16244 7.81826,7.40709 0.25672,0.24466 0.74199,0.70634 1.07838,1.02598 0.3364,0.31963 0.86151,0.81949 1.16691,1.11079 0.30541,0.2913 1.03185,0.98082 1.61431,1.53227 l 1.05903,1.00261 z m 88.76811,-2.24866 c 0.68782,-0.72913 1.68781,-1.78515 2.22218,-2.34673 0.53438,-0.56157 2.4506,-2.58323 4.25827,-4.49258 1.80767,-1.90934 3.47562,-3.66846 3.70656,-3.90913 0.23094,-0.24068 2.84253,-2.99749 5.80355,-6.12626 2.96102,-3.12875 5.55728,-5.86688 5.76948,-6.08474 L 200,162.43874 l -0.40944,-0.39158 c -0.22519,-0.21537 -0.67153,-0.63917 -0.99187,-0.94179 -0.32034,-0.30261 -0.79247,-0.75095 -1.04919,-0.99632 -0.25672,-0.24535 -2.27838,-2.16074 -4.49258,-4.25641 -2.21421,-2.09566 -4.23587,-4.01194 -4.49259,-4.25841 -0.25672,-0.24647 -1.50385,-1.42868 -2.7714,-2.62714 -1.26755,-1.19846 -2.54094,-2.40589 -2.82975,-2.68318 -0.2888,-0.27729 -2.03479,-1.9323 -3.87995,-3.67781 -1.84517,-1.7455 -3.59115,-3.40049 -3.87996,-3.67775 -0.28881,-0.27725 -1.53594,-1.4611 -2.7714,-2.63078 -7.51991,-7.11945 -15.85357,-15.0149 -16.27833,-15.42235 -0.27276,-0.26164 -1.03417,-0.98492 -1.69201,-1.60728 -0.65785,-0.62237 -1.65555,-1.56808 -2.21712,-2.10158 -0.56158,-0.5335 -3.33152,-3.1574 -6.15543,-5.83088 -2.82391,-2.67348 -5.34442,-5.06281 -5.60114,-5.3096 -0.3736,-0.35916 -4.77216,-4.52101 -5.18143,-4.90259 -0.10033,-0.0935 0.20943,-0.43049 6.44176,-7.007268 3.60094,-3.799951 6.97103,-7.355342 7.48909,-7.900869 2.45612,-2.586323 3.46063,-3.646077 8.46151,-8.926825 2.94775,-3.11272 5.57447,-5.88266 5.83717,-6.155424 0.2627,-0.272765 1.69396,-1.782448 3.1806,-3.354853 1.48664,-1.572405 3.15264,-3.331514 3.70223,-3.909132 0.54959,-0.577618 1.74406,-1.837876 2.65436,-2.800573 0.91031,-0.962697 1.8706,-1.973528 2.134,-2.246292 0.26339,-0.272764 0.54942,-0.5747 0.63563,-0.670972 0.0862,-0.09627 0.30698,-0.332566 0.49062,-0.525104 0.18363,-0.192541 0.85649,-0.901437 1.49524,-1.575323 0.63874,-0.673888 1.36063,-1.435293 1.60419,-1.692013 0.24356,-0.25672 0.67806,-0.715833 0.96556,-1.020255 0.28751,-0.304415 0.76038,-0.803268 1.05083,-1.108559 0.29046,-0.305287 0.80174,-0.843876 1.13619,-1.196866 0.33445,-0.352989 0.82169,-0.864969 1.08276,-1.137731 0.26108,-0.272765 3.37081,-3.554685 6.91051,-7.293158 3.5397,-3.738473 6.68092,-7.053685 6.98047,-7.367133 0.29956,-0.313448 0.54268,-0.58913 0.54027,-0.612624 -0.002,-0.0235 -2.96271,-2.843066 -6.57843,-6.265721 -3.61573,-3.422657 -8.96328,-8.486255 -11.88346,-11.252449 -2.92018,-2.766196 -5.38331,-5.098727 -5.47362,-5.183407 l -0.16419,-0.153966 -0.30052,0.320816 c -0.16529,0.176447 -0.73665,0.780283 -1.26968,1.341855 -0.53304,0.561572 -3.61728,3.817238 -6.85388,7.234812 -7.58245,8.006428 -7.95059,8.394773 -8.51767,8.985169 -0.262,0.272765 -3.58348,3.777856 -7.38109,7.789094 -3.79761,4.011236 -7.11996,7.516326 -7.38302,7.789091 -0.26305,0.272764 -2.90189,3.055832 -5.86408,6.184597 -2.96219,3.128763 -5.82234,6.148131 -6.35589,6.709703 -0.53354,0.561574 -1.71565,1.808704 -2.62689,2.771401 -0.91124,0.962697 -1.87027,1.973528 -2.13118,2.246292 -0.26091,0.272764 -1.20625,1.270469 -2.10075,2.21712 -0.89451,0.946651 -1.84046,1.944356 -2.10211,2.21712 -0.26165,0.272764 -3.6203,3.817238 -7.46366,7.876609 -3.84337,4.059372 -7.18955,7.590719 -7.43597,7.847437 -0.52378,0.54568 -1.84027,1.934099 -9.01762,9.510277 -2.91845,3.08063 -6.2586,6.603475 -7.42256,7.828544 l -2.11629,2.22741 1.67711,1.59204 c 0.92242,0.87562 1.91341,1.81878 2.20222,2.09591 0.28881,0.27712 2.06105,1.95766 3.9383,3.73453 1.87726,1.77687 4.17461,3.9521 5.10521,4.83384 0.93061,0.88175 1.88893,1.78951 2.1296,2.01726 0.5516,0.52197 1.62911,1.54659 2.27547,2.16376 0.27276,0.26045 1.79558,1.70403 3.38402,3.20797 1.58845,1.50393 3.09814,2.93472 3.35486,3.17955 0.25672,0.24484 5.77034,5.4686 12.2525,11.60836 6.48216,6.13975 12.00891,11.37786 12.28168,11.64025 0.27276,0.26238 1.53302,1.45793 2.80057,2.65676 1.26755,1.19884 2.51468,2.37997 2.7714,2.62474 0.78225,0.74585 8.72079,8.26954 17.44523,16.53361 1.86121,1.763 3.6072,3.41941 3.87996,3.68092 0.27276,0.26151 1.03417,0.98335 1.69201,1.60411 0.65785,0.62076 1.40612,1.32938 1.66284,1.57471 0.25672,0.24534 1.25443,1.19137 2.21712,2.10228 2.78915,2.6391 6.1415,5.81599 6.68053,6.33086 0.71376,0.68174 1.1455,1.07794 1.17255,1.07602 0.0129,-8.8e-4 0.5863,-0.59823 1.27413,-1.32735 z"
       id="path847" />
  </g>
</svg>
