<?xml version="1.0" encoding="UTF-8" standalone="no"?>
<svg
   xmlns:dc="http://purl.org/dc/elements/1.1/"
   xmlns:cc="http://creativecommons.org/ns#"
   xmlns:rdf="http://www.w3.org/1999/02/22-rdf-syntax-ns#"
   xmlns:svg="http://www.w3.org/2000/svg"
   xmlns="http://www.w3.org/2000/svg"
   xmlns:sodipodi="http://sodipodi.sourceforge.net/DTD/sodipodi-0.dtd"
   xmlns:inkscape="http://www.inkscape.org/namespaces/inkscape"
   width="200mm"
   height="200mm"
   viewBox="0 0 200 200"
   version="1.1"
   id="svg8"
   inkscape:version="1.0.1 (3bc2e813f5, 2020-09-07)"
   sodipodi:docname="Earth.svg"
   inkscape:export-filename="E:\scieboFH\PL2\GHEtool-main\GHEtool\pics\Earth.png"
   inkscape:export-xdpi="130"
   inkscape:export-ydpi="130">
  <defs
     id="defs2" />
  <sodipodi:namedview
     id="base"
     pagecolor="#ffffff"
     bordercolor="#666666"
     borderopacity="1.0"
     inkscape:pageopacity="0.0"
     inkscape:pageshadow="2"
     inkscape:zoom="0.35"
     inkscape:cx="245.30998"
     inkscape:cy="303.03676"
     inkscape:document-units="mm"
     inkscape:current-layer="layer1"
     inkscape:document-rotation="0"
     showgrid="false"
     inkscape:window-width="1254"
     inkscape:window-height="1041"
     inkscape:window-x="2024"
     inkscape:window-y="0"
     inkscape:window-maximized="0" />
  <metadata
     id="metadata5">
    <rdf:RDF>
      <cc:Work
         rdf:about="">
        <dc:format>image/svg+xml</dc:format>
        <dc:type
           rdf:resource="http://purl.org/dc/dcmitype/StillImage" />
        <dc:title></dc:title>
      </cc:Work>
    </rdf:RDF>
  </metadata>
  <g
     inkscape:label="Ebene 1"
     inkscape:groupmode="layer"
     id="layer1">
    <path
       d="m 139.54339,178.61252 c -6.41246,-5.9375 -14.96246,-9.7375 -24.22501,-9.7375 -1.18749,0 -2.37497,0 -3.56246,0.23752 0.71273,-11.87501 -1.18748,-23.98751 -3.56254,-36.57501 0.71272,-1.425 2.37506,-3.08751 4.51251,-4.51251 4.03749,8.55001 12.58749,14.72501 22.80001,14.72501 4.51252,0 8.78752,-1.1875 12.35006,-3.325 v 0 c 19.23746,-10.45 21.61243,-30.16251 21.61243,-52.012519 0,0 -20.66246,5.7 -33.72497,5.22501 -13.77498,0 -24.93747,11.162499 -24.93747,24.937509 0,0.23751 0,0.23751 0,0.47503 -1.425,0.71254 -2.85,1.6625 -4.275,2.85 -2.85,-17.575 -4.51251,-35.625009 1.18749,-55.337518 2.37497,-0.950001 5.22497,-1.6625 7.83745,-1.899991 0.23788,3.32499 1.90004,6.4125 4.75004,8.55 1.90003,1.425 3.79997,2.1375 5.93751,2.375 v 0 c 10.68746,1.6625 17.57495,-5.46251 24.22501,-14.25001 0,0 -9.975,-4.0375 -15.20006,-8.075 -5.22498,-4.0375 -12.34998,-3.0875 -16.62498,1.425 -2.37497,0 -4.98746,0.23752 -7.36252,0.71246 2.85,-6.65001 6.65007,-13.53751 11.40001,-20.662507 0.95006,0.237515 1.66251,0.237515 2.61248,0.237515 6.88758,0 12.35007,-5.700002 12.35007,-12.35001 0,-6.174995 2.85,-16.6250005 2.85,-16.6250005 -10.92507,0 -20.66255,1.187503 -25.88753,10.6875025 v 0 c -0.94997,1.900003 -1.66251,4.037504 -1.66251,6.175005 0,2.612494 0.71272,4.749995 2.13754,6.887495 -2.85,4.275002 -5.46257,8.550003 -7.83754,12.825 -0.94997,-1.18749 -1.90003,-2.1375 -3.08752,-3.324991 0,-0.47503 0.23788,-0.950006 0.23788,-1.425 0,-6.887505 -5.700015,-12.35001 -12.349985,-12.35001 -6.64997,0.237515 -16.86249,-2.612494 -16.86249,-2.612494 0,10.924999 1.18749,20.662505 10.68746,25.887505 v 0 c 1.90003,0.94995 4.03749,1.66245 6.17503,1.66245 2.85,0 5.22497,-0.95001 7.36252,-2.37501 1.425005,1.425 2.374965,2.85001 3.324945,4.512511 -7.599945,17.574999 -9.262465,34.200009 -8.312495,49.875008 -0.23787,-0.23751 -0.47485,-0.23751 -0.94997,-0.47503 -1.66251,-0.71254 -3.08751,-1.662488 -4.75003,-2.374989 0.23788,-1.425 0.23788,-2.612509 0.23788,-4.03751 0,-13.775 -11.16249,-24.9375 -24.93756,-24.9375 -12.825,0.475031 -33.48746,-5.224969 -33.48746,-5.224969 0,21.85 2.37497,41.325008 21.61252,52.012508 v 0 c 3.56246,2.1375 7.83746,3.325 12.34997,3.325 9.02504,0 16.86249,-4.75 21.37501,-11.875 1.18749,0.71254 2.61249,1.1875 3.79997,1.9 1.90003,0.95 4.03758,1.89999 6.17503,2.85 0.94997,6.8875 2.13755,13.775 3.08752,20.1875 2.374965,13.53751 4.750035,26.60001 3.325025,38.71251 -4.512515,1.9 -8.549995,4.51251 -12.112545,7.8375 C 85.631595,177.18749 80.406625,176 74.944145,176 c -13.77507,0 -25.41249,7.59999 -31.58753,19 H 166.6191 c -5.7,-9.26251 -15.43749,-15.4375 -27.07501,-16.38751 z"
       id="path833"
       style="stroke-width:2.375;fill:#ffffff;fill-opacity:1" />
  </g>
</svg>
