<?xml version="1.0" encoding="UTF-8" standalone="no"?>
<!-- Created with Inkscape (http://www.inkscape.org/) -->

<svg
   width="55.8512mm"
   height="41.868088mm"
   viewBox="0 0 55.851199 41.868088"
   version="1.1"
   id="svg5"
   inkscape:version="1.1.1 (3bf5ae0d25, 2021-09-20)"
   sodipodi:docname="Optimize_Profile.svg"
   xmlns:inkscape="http://www.inkscape.org/namespaces/inkscape"
   xmlns:sodipodi="http://sodipodi.sourceforge.net/DTD/sodipodi-0.dtd"
   xmlns="http://www.w3.org/2000/svg"
   xmlns:svg="http://www.w3.org/2000/svg">
  <sodipodi:namedview
     id="namedview7"
     pagecolor="#ffffff"
     bordercolor="#666666"
     borderopacity="1.0"
     inkscape:pageshadow="2"
     inkscape:pageopacity="0.0"
     inkscape:pagecheckerboard="0"
     inkscape:document-units="mm"
     showgrid="false"
     fit-margin-top="1"
     fit-margin-left="1"
     fit-margin-bottom="1"
     fit-margin-right="1"
     inkscape:zoom="1.5001964"
     inkscape:cx="52.326482"
     inkscape:cy="156.97945"
     inkscape:window-width="1920"
     inkscape:window-height="1027"
     inkscape:window-x="1912"
     inkscape:window-y="-8"
     inkscape:window-maximized="1"
     inkscape:current-layer="Icons" />
  <defs
     id="defs2" />
  <g
     inkscape:label="Ebene 1"
     inkscape:groupmode="layer"
     id="layer1"
     transform="translate(-18.901418,-118.12833)">
    <g
       id="Icons"
       transform="matrix(0.26458333,0,0,0.26458333,34.922734,126.27625)">
      <g
         id="g1940"
         transform="translate(-18.337054,13.47106)">
        <path
           d="M 16,14 H 14 V 82 H 81.97 V 80 H 16 Z"
           id="path824"
           style="fill:#000000;stroke:#ffffff;stroke-width:3.77953;stroke-miterlimit:4;stroke-dasharray:none;stroke-opacity:1" />
        <path
           d="M 61,60 C 56.055,60 52.63,51.111 49.317,42.515 45.846,33.508 42.567,25 37,25 29.649,25 27.393,34.167 25.4,42.255 l -0.371,1.5 1.94,0.486 0.374,-1.51 C 29.159,35.358 31.217,27 37,27 41.194,27 44.375,35.253 47.451,43.234 51.006,52.46 54.683,62 61,62 c 7.627,0 10.965,-15.683 11.862,-20.873 0,-0.01 0.013,-0.01 0.018,0 l 4.254,7.373 1.732,-1 -6,-10.394 -10.366,5.982 1,1.732 7.418,-4.278 c 0.0035,-0.0035 0.0092,-0.0036 0.0127,-1e-4 0.0024,0.0024 0.0033,0.0059 0.0023,0.0091 C 69.853,46.9 66.49,60 61,60 Z"
           id="path826"
           style="fill:#000000;stroke:#ffffff;stroke-width:3.77953;stroke-miterlimit:4;stroke-dasharray:none;stroke-opacity:1" />
      </g>
      <path
         d="m 144.69767,34.812986 c -2.51896,-2.518949 -6.86986,-2.747945 -9.61781,-0.228995 L 114.69926,54.96458 C 112.6383,9.1655043 74.854067,-27.015768 29.054991,-27.015768 c -35.2652868,0 -67.095645,21.5255686 -79.919386,54.500902 -12.82374,32.746339 -4.350912,70.30158 21.29657,94.346096 2.747944,2.51894 7.098857,2.51894 9.617806,-0.458 2.518949,-2.74793 2.518949,-7.09885 -0.228995,-9.6178 C -43.994534,89.542881 -49.948413,54.048598 -34.834718,25.424176 -19.721023,-3.4292402 13.025315,-18.542938 44.626677,-11.44408 76.457034,-4.3452228 99.58557,23.134223 100.95954,55.651566 L 80.120962,34.583991 c -2.747947,-2.747945 -7.098859,-2.747945 -9.617808,0 -2.51895,2.747945 -2.747945,7.098856 0,9.617806 l 32.288356,32.288347 c 1.14497,1.144978 2.74794,1.831963 4.3509,2.060959 h 0.458 0.68699 0.68698 l 0.45799,-0.228996 c 0.229,0 0.458,-0.228995 0.68698,-0.228995 v 0 c 0.91599,-0.228995 1.60297,-0.915982 2.28996,-1.602968 l 32.28836,-32.288347 c 2.74794,-2.51895 2.74794,-6.869861 0,-9.388811 z"
         id="path1850"
         style="fill:#ffffff;stroke-width:2.28995" />
    </g>
  </g>
</svg>
