<?xml version="1.0" encoding="UTF-8" standalone="no"?>
<!-- Created with Inkscape (http://www.inkscape.org/) -->

<svg
   width="21.991667mm"
   height="21.991669mm"
   viewBox="0 0 21.991667 21.991669"
   version="1.1"
   id="svg5"
   inkscape:version="1.1.1 (3bf5ae0d25, 2021-09-20)"
   sodipodi:docname="Pen.svg"
   xmlns:inkscape="http://www.inkscape.org/namespaces/inkscape"
   xmlns:sodipodi="http://sodipodi.sourceforge.net/DTD/sodipodi-0.dtd"
   xmlns="http://www.w3.org/2000/svg"
   xmlns:svg="http://www.w3.org/2000/svg">
  <sodipodi:namedview
     id="namedview7"
     pagecolor="#ffffff"
     bordercolor="#666666"
     borderopacity="1.0"
     inkscape:pageshadow="2"
     inkscape:pageopacity="0.0"
     inkscape:pagecheckerboard="0"
     inkscape:document-units="mm"
     showgrid="false"
     fit-margin-top="2"
     fit-margin-left="2"
     fit-margin-bottom="2"
     fit-margin-right="2"
     inkscape:zoom="3.0930415"
     inkscape:cx="61.589862"
     inkscape:cy="78.078487"
     inkscape:window-width="1920"
     inkscape:window-height="1027"
     inkscape:window-x="1912"
     inkscape:window-y="-8"
     inkscape:window-maximized="1"
     inkscape:current-layer="layer1" />
  <defs
     id="defs2" />
  <g
     inkscape:label="Ebene 1"
     inkscape:groupmode="layer"
     id="layer1"
     transform="translate(-78.309466,-97.128591)">
    <path
       d="M 80.919256,108.74086 H 96.21886 l -1.820383,1.82039 c -0.237356,0.23736 -0.237356,0.62218 0,0.85954 0.237356,0.23736 0.622184,0.23736 0.85954,0 l 2.863087,-2.86391 c 0.237353,-0.22605 0.246526,-0.60171 0.0205,-0.83907 -0.007,-0.007 -0.01346,-0.0138 -0.0205,-0.0205 l -2.863701,-2.86309 c -0.226059,-0.23735 -0.601719,-0.24651 -0.839074,-0.0204 -0.007,0.007 -0.01381,0.0135 -0.02047,0.0204 -0.237355,0.22606 -0.246524,0.60172 -0.02047,0.83908 0.0067,0.007 0.01349,0.0138 0.02047,0.0204 l 1.820383,1.82142 H 80.919256 c -0.339078,0 -0.613957,0.27486 -0.613957,0.61395 0,0.33909 0.274879,0.61396 0.613957,0.61396 z"
       id="path1471"
       style="stroke-width:0.204652;fill:#ffffff" />
    <path
       d="M 97.691343,108.74086 H 82.391739 l 1.820383,1.82039 c 0.237356,0.23736 0.237356,0.62218 0,0.85954 -0.237356,0.23736 -0.622184,0.23736 -0.85954,0 l -2.863087,-2.86391 c -0.237353,-0.22605 -0.246526,-0.60171 -0.0205,-0.83907 0.007,-0.007 0.01346,-0.0138 0.0205,-0.0205 l 2.863701,-2.86309 c 0.226059,-0.23735 0.601719,-0.24651 0.839074,-0.0204 0.007,0.007 0.01381,0.0135 0.02047,0.0204 0.237355,0.22606 0.246524,0.60172 0.02047,0.83908 -0.0067,0.007 -0.01349,0.0138 -0.02047,0.0204 l -1.820383,1.82142 h 15.298986 c 0.339078,0 0.613957,0.27486 0.613957,0.61395 0,0.33909 -0.274879,0.61396 -0.613957,0.61396 z"
       id="path1471-3"
       style="stroke-width:0.204652;fill:#ffffff" />
    <path
       d="m 88.688867,116.51045 v -15.2996 l -1.82039,1.82038 c -0.23736,0.23736 -0.62218,0.23736 -0.85954,0 -0.23736,-0.23736 -0.23736,-0.62218 0,-0.85954 l 2.86391,-2.863089 c 0.22605,-0.23735 0.60171,-0.24652 0.83907,-0.0205 0.007,0.007 0.0138,0.0135 0.0205,0.0205 l 2.86309,2.863699 c 0.23735,0.22606 0.24651,0.60172 0.0204,0.83908 -0.007,0.007 -0.0135,0.0138 -0.0204,0.0205 -0.22606,0.23735 -0.60172,0.24652 -0.83908,0.0205 -0.007,-0.007 -0.0138,-0.0135 -0.0204,-0.0205 l -1.82142,-1.82038 v 15.29898 c 0,0.33908 -0.27486,0.61396 -0.61395,0.61396 -0.33909,0 -0.61396,-0.27488 -0.61396,-0.61396 z"
       id="path1471-3-9"
       style="stroke-width:0.204652;fill:#ffffff" />
    <path
       d="M 88.688867,99.738399 V 115.038 l -1.82039,-1.82038 c -0.23736,-0.23736 -0.62218,-0.23736 -0.85954,0 -0.23736,0.23736 -0.23736,0.62218 0,0.85954 l 2.86391,2.86309 c 0.22605,0.23735 0.60171,0.24652 0.83907,0.0205 0.007,-0.007 0.0138,-0.0135 0.0205,-0.0205 l 2.86309,-2.8637 c 0.23735,-0.22606 0.24651,-0.60172 0.0204,-0.83908 -0.007,-0.007 -0.0135,-0.0138 -0.0204,-0.0205 -0.22606,-0.23735 -0.60172,-0.24652 -0.83908,-0.0205 -0.007,0.007 -0.0138,0.0135 -0.0204,0.0205 l -1.82142,1.82038 V 99.738369 c 0,-0.33908 -0.27486,-0.61396 -0.61395,-0.61396 -0.33909,0 -0.61396,0.27488 -0.61396,0.61396 z"
       id="path1471-3-9-4"
       style="stroke-width:0.204652;fill:#ffffff" />
  </g>
</svg>
