<?xml version="1.0" encoding="UTF-8" standalone="no"?>
<svg
   xmlns:dc="http://purl.org/dc/elements/1.1/"
   xmlns:cc="http://creativecommons.org/ns#"
   xmlns:rdf="http://www.w3.org/1999/02/22-rdf-syntax-ns#"
   xmlns:svg="http://www.w3.org/2000/svg"
   xmlns="http://www.w3.org/2000/svg"
   xmlns:sodipodi="http://sodipodi.sourceforge.net/DTD/sodipodi-0.dtd"
   xmlns:inkscape="http://www.inkscape.org/namespaces/inkscape"
   width="200mm"
   height="200mm"
   viewBox="0 0 200 200"
   version="1.1"
   id="svg8"
   inkscape:export-filename="E:\scieboFH\PL2\GHEtool-main\GHEtool\pics\Result.png"
   inkscape:export-xdpi="130"
   inkscape:export-ydpi="130"
   inkscape:version="1.0.1 (3bc2e813f5, 2020-09-07)"
   sodipodi:docname="Result.svg">
  <defs
     id="defs2" />
  <sodipodi:namedview
     id="base"
     pagecolor="#ffffff"
     bordercolor="#666666"
     borderopacity="1.0"
     inkscape:pageopacity="0.0"
     inkscape:pageshadow="2"
     inkscape:zoom="0.35"
     inkscape:cx="400"
     inkscape:cy="560"
     inkscape:document-units="mm"
     inkscape:current-layer="layer1"
     inkscape:document-rotation="0"
     showgrid="false"
     inkscape:window-width="1254"
     inkscape:window-height="1041"
     inkscape:window-x="1998"
     inkscape:window-y="0"
     inkscape:window-maximized="0" />
  <metadata
     id="metadata5">
    <rdf:RDF>
      <cc:Work
         rdf:about="">
        <dc:format>image/svg+xml</dc:format>
        <dc:type
           rdf:resource="http://purl.org/dc/dcmitype/StillImage" />
        <dc:title></dc:title>
      </cc:Work>
    </rdf:RDF>
  </metadata>
  <g
     inkscape:label="Ebene 1"
     inkscape:groupmode="layer"
     id="layer1">
    <path
       d="M 142.74999,66.750021 H 57.250005 v -37.99996 h 85.499985 z m 0,33.250019 h -14.25 V 85.750051 h 14.25 z m 0,23.74997 h -14.25 v -14.25 h 14.25 z m 0,23.74997 h -14.25 v -14.25 h 14.25 z m 0,23.75005 h -14.25 v -14.24999 h 14.25 z M 119,100.00004 H 104.75 V 85.750051 H 119 Z m 0,23.74997 h -14.25 v -14.25 H 119 Z m 0,23.74997 h -14.25 v -14.25 H 119 Z m 0,23.75005 H 104.75 V 157.00004 H 119 Z M 95.25,100.00004 H 81 V 85.750051 h 14.25 z m 0,23.74997 H 81 v -14.25 h 14.25 z m 0,23.74997 H 81 v -14.25 h 14.25 z m 0,23.75005 H 57.250005 V 157.00004 H 95.25 Z M 57.250005,133.24998 H 71.5 v 14.25 H 57.250005 Z m 0,-23.74997 H 71.5 v 14.25 H 57.250005 Z m 0,-23.749959 H 71.5 V 100.00004 H 57.250005 Z M 156.99999,5.0000017 H 43.000008 c -5.224997,0 -9.499996,4.275 -9.499996,9.5000593 V 185.50003 c 0,5.22497 4.274999,9.49997 9.499996,9.49997 H 156.99999 c 5.225,0 9.5,-4.275 9.5,-9.49997 V 14.500061 c 0,-5.2250593 -4.275,-9.5000593 -9.5,-9.5000593 z"
       id="path833"
       style="stroke-width:2.375;fill:#ffffff;fill-opacity:1" />
  </g>
</svg>
