<?xml version="1.0" encoding="UTF-8" standalone="no"?>
<!-- Created with Inkscape (http://www.inkscape.org/) -->

<svg
   width="21.250834mm"
   height="24.875626mm"
   viewBox="0 0 21.250834 24.875626"
   version="1.1"
   id="svg827"
   inkscape:version="1.1.1 (3bf5ae0d25, 2021-09-20)"
   sodipodi:docname="Settings.svg"
   xmlns:inkscape="http://www.inkscape.org/namespaces/inkscape"
   xmlns:sodipodi="http://sodipodi.sourceforge.net/DTD/sodipodi-0.dtd"
   xmlns="http://www.w3.org/2000/svg"
   xmlns:svg="http://www.w3.org/2000/svg">
  <sodipodi:namedview
     id="namedview829"
     pagecolor="#ffffff"
     bordercolor="#666666"
     borderopacity="1.0"
     inkscape:pageshadow="2"
     inkscape:pageopacity="0.0"
     inkscape:pagecheckerboard="0"
     inkscape:document-units="mm"
     showgrid="false"
     fit-margin-top="2"
     fit-margin-left="2"
     fit-margin-right="2"
     fit-margin-bottom="2"
     inkscape:zoom="4.3742212"
     inkscape:cx="19.089112"
     inkscape:cy="105.27588"
     inkscape:window-width="1920"
     inkscape:window-height="1027"
     inkscape:window-x="-8"
     inkscape:window-y="-8"
     inkscape:window-maximized="1"
     inkscape:current-layer="layer1" />
  <defs
     id="defs824" />
  <g
     inkscape:label="Ebene 1"
     inkscape:groupmode="layer"
     id="layer1"
     transform="translate(-43.094629,-112.45274)">
    <g
       id="g892"
       transform="matrix(0.26458333,0,0,0.26458333,41.020046,112.20378)"
       style="fill:#ffffff;fill-opacity:1">
      <path
         d="m 59.3,37.3 c -4.2,0 -7.5,-3.4 -7.5,-7.5 0,-4.1 3.4,-7.5 7.5,-7.5 4.2,0 7.5,3.4 7.5,7.5 0,4.1 -3.4,7.5 -7.5,7.5 z M 76.2,25.1 c -0.4,-1.4 -0.9,-2.7 -1.6,-3.9 l 1.6,-4.7 -3.6,-3.6 -4.7,1.6 C 66.7,13.8 65.4,13.3 64,12.9 L 61.8,8.5 h -5 l -2.2,4.4 c -1.4,0.4 -2.7,0.9 -3.9,1.6 L 46,12.9 42.4,16.5 44,21.2 c -0.7,1.2 -1.2,2.5 -1.6,3.9 L 38,27.3 v 5 l 4.4,2.2 c 0.4,1.4 0.9,2.7 1.6,3.9 l -1.6,4.7 3.5,3.5 4.7,-1.6 c 1.2,0.7 2.5,1.2 3.9,1.6 l 2.2,4.4 h 5 l 2.2,-4.4 c 1.4,-0.4 2.7,-0.9 3.9,-1.6 l 4.7,1.6 3.6,-3.5 -1.6,-4.7 c 0.7,-1.2 1.3,-2.6 1.7,-3.9 l 4.4,-2.2 v -5 z"
         id="path888"
         style="fill:#ffffff;fill-opacity:1" />
      <path
         d="m 36.7,73.7 c -4.2,0 -7.5,-3.4 -7.5,-7.5 0,-4.2 3.4,-7.5 7.5,-7.5 4.2,0 7.5,3.4 7.5,7.5 0,4.1 -3.3,7.5 -7.5,7.5 z M 52,57.6 53.6,52.9 50,49.3 45.3,50.9 c -1.2,-0.7 -2.6,-1.2 -3.9,-1.6 l -2.2,-4.4 h -5 L 32,49.3 c -1.4,0.4 -2.7,0.9 -3.9,1.6 l -4.7,-1.6 -3.5,3.5 1.5,4.7 c -0.7,1.2 -1.2,2.6 -1.6,3.9 l -4.4,2.2 v 5 l 4.4,2.2 c 0.4,1.4 0.9,2.7 1.6,3.9 l -1.5,4.7 3.5,3.5 4.7,-1.5 c 1.2,0.7 2.5,1.2 3.9,1.6 l 2.2,4.4 h 5 L 41.4,83 c 1.4,-0.4 2.7,-0.9 3.9,-1.6 L 50,83 53.5,79.4 52,74.8 c 0.7,-1.2 1.2,-2.5 1.6,-3.9 L 58,68.7 v -5 L 53.6,61.5 C 53.2,60.1 52.7,58.8 52,57.6 Z"
         id="path890"
         style="fill:#ffffff;fill-opacity:1" />
    </g>
  </g>
</svg>
