<?xml version="1.0" encoding="UTF-8" standalone="no"?>
<!-- Created with Inkscape (http://www.inkscape.org/) -->

<svg
   width="20.98373mm"
   height="20.991667mm"
   viewBox="0 0 20.98373 20.991667"
   version="1.1"
   id="svg5"
   inkscape:version="1.1.1 (3bf5ae0d25, 2021-09-20)"
   sodipodi:docname="Temp_Profile.svg"
   xmlns:inkscape="http://www.inkscape.org/namespaces/inkscape"
   xmlns:sodipodi="http://sodipodi.sourceforge.net/DTD/sodipodi-0.dtd"
   xmlns="http://www.w3.org/2000/svg"
   xmlns:svg="http://www.w3.org/2000/svg">
  <sodipodi:namedview
     id="namedview7"
     pagecolor="#ffffff"
     bordercolor="#666666"
     borderopacity="1.0"
     inkscape:pageshadow="2"
     inkscape:pageopacity="0.0"
     inkscape:pagecheckerboard="0"
     inkscape:document-units="mm"
     showgrid="false"
     fit-margin-top="1"
     fit-margin-left="1"
     fit-margin-bottom="1"
     fit-margin-right="1"
     inkscape:zoom="6.0007856"
     inkscape:cx="46.0773"
     inkscape:cy="49.743487"
     inkscape:window-width="1920"
     inkscape:window-height="1027"
     inkscape:window-x="1912"
     inkscape:window-y="-8"
     inkscape:window-maximized="1"
     inkscape:current-layer="Icons" />
  <defs
     id="defs2" />
  <g
     inkscape:label="Ebene 1"
     inkscape:groupmode="layer"
     id="layer1"
     transform="translate(-37.1269,-128.48042)">
    <g
       id="Icons"
       transform="matrix(0.26458333,0,0,0.26458333,34.922734,126.27625)">
      <path
         d="M 16,14 H 14 V 82 H 81.97 V 80 H 16 Z"
         id="path824"
         style="stroke:#ffffff;stroke-width:3.77953;stroke-miterlimit:4;stroke-dasharray:none;stroke-opacity:1" />
      <path
         d="M 61,60 C 56.055,60 52.63,51.111 49.317,42.515 45.846,33.508 42.567,25 37,25 29.649,25 27.393,34.167 25.4,42.255 l -0.371,1.5 1.94,0.486 0.374,-1.51 C 29.159,35.358 31.217,27 37,27 41.194,27 44.375,35.253 47.451,43.234 51.006,52.46 54.683,62 61,62 c 7.627,0 10.965,-15.683 11.862,-20.873 0,-0.01 0.013,-0.01 0.018,0 l 4.254,7.373 1.732,-1 -6,-10.394 -10.366,5.982 1,1.732 7.418,-4.278 c 0.0035,-0.0035 0.0092,-0.0036 0.0127,-1e-4 0.0024,0.0024 0.0033,0.0059 0.0023,0.0091 C 69.853,46.9 66.49,60 61,60 Z"
         id="path826"
         style="fill:#ffffff;stroke:#ffffff;stroke-width:3.77953;stroke-miterlimit:4;stroke-dasharray:none;stroke-opacity:1" />
    </g>
  </g>
</svg>
