<?xml version="1.0" encoding="UTF-8" standalone="no"?>
<svg
   xmlns:dc="http://purl.org/dc/elements/1.1/"
   xmlns:cc="http://creativecommons.org/ns#"
   xmlns:rdf="http://www.w3.org/1999/02/22-rdf-syntax-ns#"
   xmlns:svg="http://www.w3.org/2000/svg"
   xmlns="http://www.w3.org/2000/svg"
   xmlns:sodipodi="http://sodipodi.sourceforge.net/DTD/sodipodi-0.dtd"
   xmlns:inkscape="http://www.inkscape.org/namespaces/inkscape"
   width="200mm"
   height="200mm"
   viewBox="0 0 200 200"
   version="1.1"
   id="svg8"
   inkscape:version="1.0.1 (3bc2e813f5, 2020-09-07)"
   sodipodi:docname="Thermal.svg"
   inkscape:export-filename="E:\scieboFH\PL2\GHEtool-main\GHEtool\pics\Thermal.png"
   inkscape:export-xdpi="130"
   inkscape:export-ydpi="130">
  <defs
     id="defs2" />
  <sodipodi:namedview
     id="base"
     pagecolor="#ffffff"
     bordercolor="#666666"
     borderopacity="1.0"
     inkscape:pageopacity="0.0"
     inkscape:pageshadow="2"
     inkscape:zoom="0.24748737"
     inkscape:cx="794.14328"
     inkscape:cy="883.99219"
     inkscape:document-units="mm"
     inkscape:current-layer="layer1"
     inkscape:document-rotation="0"
     showgrid="false"
     inkscape:window-width="1254"
     inkscape:window-height="1018"
     inkscape:window-x="2128"
     inkscape:window-y="0"
     inkscape:window-maximized="0" />
  <metadata
     id="metadata5">
    <rdf:RDF>
      <cc:Work
         rdf:about="">
        <dc:format>image/svg+xml</dc:format>
        <dc:type
           rdf:resource="http://purl.org/dc/dcmitype/StillImage" />
        <dc:title></dc:title>
      </cc:Work>
    </rdf:RDF>
  </metadata>
  <g
     inkscape:label="Ebene 1"
     inkscape:groupmode="layer"
     id="layer1">
    <g
       id="g837"
       transform="matrix(2.1444695,0,0,2.1444695,-2.934536,-2.934536)"
       style="fill:#ffffff;fill-opacity:1">
      <path
         d="M 48,86.3 C 41.5,86.3 35.8,81.7 34.4,75.4 32.9,69 36.1,62.5 42,59.7 v -44 c 0,-3.3 2.7,-6 6,-6 3.3,0 6,2.7 6,6 v 44 c 5.9,2.8 9,9.3 7.6,15.7 -1.5,6.3 -7.1,10.8 -13.6,10.9 z m 12,-30 V 15.7 C 60,9.1 54.6,3.7 48,3.7 41.4,3.7 36,9 36,15.7 v 40.6 c -6.9,5.2 -9.7,14.2 -7,22.3 2.7,8.2 10.4,13.7 19,13.7 8.6,0 16.3,-5.5 19,-13.7 2.7,-8.1 -0.1,-17.1 -7,-22.3 z"
         id="path833"
         style="fill:#ffffff;fill-opacity:1" />
      <path
         d="M 50,62.5 V 38.3 h -4 v 24.2 c -5,1 -8.5,5.7 -7.9,10.8 0.5,5.1 4.8,9 9.9,9 5.1,0 9.4,-3.9 9.9,-9 C 58.5,68.2 55,63.5 50,62.5 Z"
         id="path835"
         style="fill:#ffffff;fill-opacity:1" />
    </g>
  </g>
</svg>
