<?xml version="1.0" encoding="UTF-8" standalone="no"?>
<svg
   xmlns:dc="http://purl.org/dc/elements/1.1/"
   xmlns:cc="http://creativecommons.org/ns#"
   xmlns:rdf="http://www.w3.org/1999/02/22-rdf-syntax-ns#"
   xmlns:svg="http://www.w3.org/2000/svg"
   xmlns="http://www.w3.org/2000/svg"
   xmlns:sodipodi="http://sodipodi.sourceforge.net/DTD/sodipodi-0.dtd"
   xmlns:inkscape="http://www.inkscape.org/namespaces/inkscape"
   width="200mm"
   height="200mm"
   viewBox="0 0 200 200"
   version="1.1"
   id="svg849"
   inkscape:version="1.0.1 (3bc2e813f5, 2020-09-07)"
   sodipodi:docname="Update.svg"
   inkscape:export-filename="E:\scieboFH\PL2\GHEtool-main\GHEtool\pics\Update.png"
   inkscape:export-xdpi="130"
   inkscape:export-ydpi="130">
  <defs
     id="defs843" />
  <sodipodi:namedview
     id="base"
     pagecolor="#ffffff"
     bordercolor="#666666"
     borderopacity="1.0"
     inkscape:pageopacity="0.0"
     inkscape:pageshadow="2"
     inkscape:zoom="0.7"
     inkscape:cx="670.10204"
     inkscape:cy="548.02437"
     inkscape:document-units="mm"
     inkscape:current-layer="layer1"
     inkscape:document-rotation="0"
     showgrid="false"
     inkscape:window-width="1920"
     inkscape:window-height="1027"
     inkscape:window-x="1912"
     inkscape:window-y="-8"
     inkscape:window-maximized="1" />
  <metadata
     id="metadata846">
    <rdf:RDF>
      <cc:Work
         rdf:about="">
        <dc:format>image/svg+xml</dc:format>
        <dc:type
           rdf:resource="http://purl.org/dc/dcmitype/StillImage" />
        <dc:title></dc:title>
      </cc:Work>
    </rdf:RDF>
  </metadata>
  <g
     inkscape:label="Ebene 1"
     inkscape:groupmode="layer"
     id="layer1">
    <g
       id="g1427"
       transform="matrix(7.7299271,0,0,7.7299271,-718.08396,-788.20546)"
       style="fill:#ffffff">
      <path
         d="m 98.623438,117.44476 5.080002,-5.08 h -2.83104 c 0.92604,-1.79916 2.80458,-3.04271 4.97416,-3.04271 1.40229,0 2.69875,0.52917 3.67771,1.4023 h 5.15938 c -1.56105,-3.33375 -4.94771,-5.60917 -8.83709,-5.60917 -4.52437,0 -8.334372,3.06917 -9.445622,7.24958 h -2.8575 z"
         id="path1412"
         style="stroke-width:0.264583;fill:#ffffff" />
      <path
         d="m 118.12323,117.44476 -5.08,-5.08 -5.08,5.08 h 2.8575 c -0.92604,1.79917 -2.80458,3.04271 -4.97417,3.04271 -1.40229,0 -2.69875,-0.52917 -3.67771,-1.40229 h -5.185829 c 1.5875,3.33375 4.947709,5.60917 8.863539,5.60917 4.52438,0 8.33438,-3.06917 9.44563,-7.24959 z"
         id="path1414"
         style="stroke-width:0.264583;fill:#ffffff" />
    </g>
  </g>
</svg>
